<svg width="343" height="171" viewBox="0 0 343 171" fill="none" xmlns="http://www.w3.org/2000/svg">
<path d="M0 74.4205L11.5909 4.60227H40.4318C45.6591 4.60227 50.0114 5.61363 53.4886 7.63636C56.9659 9.65909 59.4318 12.4886 60.8864 16.125C62.3409 19.7614 62.6705 23.9773 61.875 28.7727C61.1023 33.6136 59.3636 37.8295 56.6591 41.4205C53.9773 45.0114 50.5227 47.7955 46.2955 49.7727C42.0682 51.75 37.2614 52.7386 31.875 52.7386H14.1136L16.3295 39.4432H30.9886C33.5568 39.4432 35.7727 39 37.6364 38.1136C39.5227 37.2273 41.0341 35.9886 42.1705 34.3977C43.3068 32.8068 44.0568 30.9318 44.4205 28.7727C44.7614 26.6136 44.625 24.75 44.0114 23.1818C43.3977 21.5909 42.2955 20.3636 40.7045 19.5C39.1364 18.6364 37.0909 18.2045 34.5682 18.2045H26.25L16.875 74.4205H0Z" fill="#003566"/>
<path d="M62.5312 74.4205L71.2585 22.0568H87.4517L85.8494 31.6023H86.3949C87.9176 28.1477 89.9062 25.5795 92.3608 23.8977C94.8153 22.1932 97.4744 21.3409 100.338 21.3409C101.111 21.3409 101.884 21.3977 102.656 21.5114C103.452 21.6023 104.202 21.7386 104.906 21.9205L102.452 36.4432C101.679 36.1477 100.668 35.9318 99.4176 35.7955C98.1676 35.6364 97.0312 35.5568 96.0085 35.5568C94.0312 35.5568 92.1903 36 90.4858 36.8864C88.804 37.75 87.3722 38.9659 86.1903 40.5341C85.0312 42.0795 84.2699 43.8977 83.9062 45.9886L79.2017 74.4205H62.5312Z" fill="#003566"/>
<path d="M102.938 74.4205L111.665 22.0568H128.335L119.608 74.4205H102.938ZM121.176 15.9205C118.812 15.9205 116.892 15.1364 115.415 13.5682C113.938 12 113.358 10.125 113.676 7.94318C113.994 5.73863 115.108 3.86363 117.017 2.31818C118.926 0.772726 121.051 0 123.392 0C125.756 0 127.653 0.772726 129.085 2.31818C130.54 3.86363 131.108 5.73863 130.79 7.94318C130.517 10.125 129.426 12 127.517 13.5682C125.631 15.1364 123.517 15.9205 121.176 15.9205Z" fill="#003566"/>
<path d="M151.969 44.5568L146.991 74.4205H130.321L139.048 22.0568H154.901L153.332 31.6705H153.912C155.548 28.4659 157.923 25.9545 161.037 24.1364C164.151 22.2955 167.651 21.375 171.537 21.375C175.196 21.375 178.253 22.1932 180.707 23.8295C183.162 25.4659 184.901 27.7614 185.923 30.7159C186.946 33.6477 187.116 37.0909 186.435 41.0455L180.844 74.4205H164.173L169.185 44.3182C169.685 41.4318 169.332 39.1705 168.128 37.5341C166.946 35.875 165.014 35.0455 162.332 35.0455C160.582 35.0455 158.98 35.4318 157.526 36.2045C156.094 36.9545 154.889 38.0341 153.912 39.4432C152.957 40.8523 152.31 42.5568 151.969 44.5568Z" fill="#003566"/>
<path d="M229.347 22.0568L227.267 34.3295H194.233L196.312 22.0568H229.347ZM205.278 9.51136H221.949L213.903 57.9545C213.744 58.9773 213.767 59.8068 213.972 60.4432C214.199 61.0568 214.608 61.5 215.199 61.7727C215.812 62.0227 216.562 62.1477 217.449 62.1477C218.062 62.1477 218.744 62.0795 219.494 61.9432C220.244 61.8068 220.812 61.7045 221.199 61.6364L221.744 73.6705C220.858 73.9205 219.665 74.2045 218.165 74.5227C216.688 74.8636 214.96 75.0795 212.983 75.1705C208.983 75.3295 205.676 74.8636 203.062 73.7727C200.472 72.6591 198.642 70.9318 197.574 68.5909C196.528 66.25 196.324 63.3182 196.96 59.7955L205.278 9.51136Z" fill="#003566"/>
<path d="M230.25 74.4205L241.841 4.60227H290.523L288.205 18.3068H256.398L254.08 32.625H283.398L281.08 46.3636H251.761L249.443 60.7159H281.25L278.932 74.4205H230.25Z" fill="#FFC300"/>
<path d="M289.739 74.4205L291.273 64.9091L320.42 35.3523L320.557 35.0114H297.102L299.318 22.0568H342.614L340.977 32.4886L313.739 61.125L313.602 61.4659H336.92L334.841 74.4205L246.58 170.42L312.29 74.4205H289.739Z" fill="#FFC300"/>
</svg>
