<svg width="363" height="286" viewBox="0 0 363 286" fill="none" xmlns="http://www.w3.org/2000/svg">
<path d="M10.1932 180L21.7841 110.182H50.625C55.8523 110.182 60.2045 111.193 63.6818 113.216C67.1591 115.239 69.625 118.068 71.0795 121.705C72.5341 125.341 72.8636 129.557 72.0682 134.352C71.2955 139.193 69.5568 143.409 66.8523 147C64.1705 150.591 60.7159 153.375 56.4886 155.352C52.2614 157.33 47.4545 158.318 42.0682 158.318H24.3068L26.5227 145.023H41.1818C43.75 145.023 45.9659 144.58 47.8295 143.693C49.7159 142.807 51.2273 141.568 52.3636 139.977C53.5 138.386 54.25 136.511 54.6136 134.352C54.9545 132.193 54.8182 130.33 54.2045 128.761C53.5909 127.17 52.4886 125.943 50.8977 125.08C49.3295 124.216 47.2841 123.784 44.7614 123.784H36.4432L27.0682 180H10.1932Z" fill="#003566"/>
<path d="M72.7244 180L81.4517 127.636H97.6449L96.0426 137.182H96.5881C98.1108 133.727 100.099 131.159 102.554 129.477C105.009 127.773 107.668 126.92 110.531 126.92C111.304 126.92 112.077 126.977 112.849 127.091C113.645 127.182 114.395 127.318 115.099 127.5L112.645 142.023C111.872 141.727 110.861 141.511 109.611 141.375C108.361 141.216 107.224 141.136 106.202 141.136C104.224 141.136 102.384 141.58 100.679 142.466C98.9972 143.33 97.5653 144.545 96.3835 146.114C95.2244 147.659 94.4631 149.477 94.0994 151.568L89.3949 180H72.7244Z" fill="#003566"/>
<path d="M113.131 180L121.858 127.636H138.528L129.801 180H113.131ZM131.369 121.5C129.006 121.5 127.085 120.716 125.608 119.148C124.131 117.58 123.551 115.705 123.869 113.523C124.188 111.318 125.301 109.443 127.21 107.898C129.119 106.352 131.244 105.58 133.585 105.58C135.949 105.58 137.847 106.352 139.278 107.898C140.733 109.443 141.301 111.318 140.983 113.523C140.71 115.705 139.619 117.58 137.71 119.148C135.824 120.716 133.71 121.5 131.369 121.5Z" fill="#003566"/>
<path d="M162.162 150.136L157.185 180H140.514L149.241 127.636H165.094L163.526 137.25H164.105C165.741 134.045 168.116 131.534 171.23 129.716C174.344 127.875 177.844 126.955 181.73 126.955C185.389 126.955 188.446 127.773 190.901 129.409C193.355 131.045 195.094 133.341 196.116 136.295C197.139 139.227 197.31 142.671 196.628 146.625L191.037 180H174.366L179.378 149.898C179.878 147.011 179.526 144.75 178.321 143.114C177.139 141.455 175.207 140.625 172.526 140.625C170.776 140.625 169.173 141.011 167.719 141.784C166.287 142.534 165.082 143.614 164.105 145.023C163.151 146.432 162.503 148.136 162.162 150.136Z" fill="#003566"/>
<path d="M239.54 127.636L237.46 139.909H204.426L206.506 127.636H239.54ZM215.472 115.091H232.142L224.097 163.534C223.938 164.557 223.96 165.386 224.165 166.023C224.392 166.636 224.801 167.08 225.392 167.352C226.006 167.602 226.756 167.727 227.642 167.727C228.256 167.727 228.938 167.659 229.688 167.523C230.438 167.386 231.006 167.284 231.392 167.216L231.938 179.25C231.051 179.5 229.858 179.784 228.358 180.102C226.881 180.443 225.153 180.659 223.176 180.75C219.176 180.909 215.869 180.443 213.256 179.352C210.665 178.239 208.835 176.511 207.767 174.171C206.722 171.83 206.517 168.898 207.153 165.375L215.472 115.091Z" fill="#003566"/>
<path d="M240.443 180L252.034 110.182H300.716L298.398 123.886H266.591L264.273 138.205H293.591L291.273 151.943H261.955L259.636 166.295H291.443L289.125 180H240.443Z" fill="#FFC300"/>
<path d="M299.932 180L301.466 170.489L330.614 140.932L330.75 140.591H307.295L309.511 127.636H352.807L351.17 138.068L323.932 166.705L323.795 167.045H347.114L345.034 180L256.773 276L322.483 180H299.932Z" fill="#FFC300"/>
</svg>
